<svg xmlns="http://www.w3.org/2000/svg" xmlns:xlink="http://www.w3.org/1999/xlink" width="176" height="48" viewBox="0 0 176 48">
  <defs>
    <radialGradient id="radial-gradient" cx="141.42" cy="24" r="24" gradientUnits="userSpaceOnUse">
      <stop offset="0" stop-color="#ffcb05"/>
      <stop offset="0.5" stop-color="#ffcb05"/>
      <stop offset="0.59" stop-color="#ffcb05" stop-opacity="0.78"/>
      <stop offset="0.7" stop-color="#ffcb05" stop-opacity="0.5"/>
      <stop offset="0.8" stop-color="#ffcb05" stop-opacity="0.29"/>
      <stop offset="0.89" stop-color="#ffcb05" stop-opacity="0.13"/>
      <stop offset="0.96" stop-color="#ffcb05" stop-opacity="0.04"/>
      <stop offset="1" stop-color="#ffcb05" stop-opacity="0"/>
    </radialGradient>
  </defs>
  <title>Suncorp Group Logo</title>
  <path d="M.51,19.85c0,2.78,1.62,4,5,4.78l2.61.56c3.06.68,3.67,1.39,3.67,2.89,0,1.8-1.57,2.91-4.4,2.91s-4.48-1.27-4.66-3.87H0c0,4,2.86,6.3,7.34,6.3,4.91,0,7.29-2.48,7.29-5.7,0-2.89-1.72-4.28-4.63-4.91l-2.73-.63c-3.14-.68-4-1.09-4-2.68S4.41,16.71,7,16.71c3.14,0,4.08,1.42,4.3,3.34h2.73c0-3.92-3.06-5.82-6.91-5.82-4.51,0-6.66,2.58-6.66,5.62m15.37-5.14V25.58c0,5.54,2.63,7.8,7.22,7.8s7.21-2.3,7.21-7.8V14.71h-3V25.93c0,3.57-1.52,4.94-4.38,4.94-2.56,0-4.1-1.47-4.1-4.94V14.71Zm16.43,0V32.89H35V18.77l8.71,14.13h3.11V14.71H44.1V28.76L35.57,14.71Zm32.1,5.65c-.3-3.65-3.27-6.08-7.54-6.08-5.29,0-8.48,3.85-8.48,9.44,0,6.51,3.57,9.65,8.25,9.65a7.51,7.51,0,0,0,7.87-7H61.64c-.58,2.89-2.18,4.46-4.84,4.46-3,0-5.44-2-5.44-6.81,0-5,2.25-7.24,5.44-7.24,2.78,0,4.2,1.34,4.73,3.57Zm1.27,3.49c0,6.2,3.57,9.57,8.76,9.57,5.52,0,8.86-3.92,8.86-9.85,0-6.56-3.85-9.39-8.84-9.39s-8.78,3.39-8.78,9.67m3,.1c0-4.68,2.43-7.21,5.92-7.21,3.22,0,5.8,2.3,5.8,6.86,0,4.84-2.35,7.27-5.72,7.27-3.7,0-6-2.33-6-6.91m19.06-6.78h5.47c2.15,0,3.27.86,3.27,2.86s-1.11,2.91-3.52,2.91H87.69Zm-2.89-2.46V32.89h2.89V25.32h5c2.4,0,3.24.73,3.32,2.78l.13,2.56a7,7,0,0,0,.33,2.23h3.11A6.42,6.42,0,0,1,99,29.78l-.05-2c-.05-2.1-.58-3-2.25-3.72a4.44,4.44,0,0,0,2.66-4.33c0-3-1.85-5-6-5Zm16.28,0V32.89H104V25.58h5.09c3.75,0,5.7-2.1,5.7-5.47,0-3.52-2.18-5.39-5.59-5.39ZM104,17.17h4.46c2.38,0,3.42,1,3.42,3s-1.11,3-3.42,3H104Z" fill="#004346"/>
  <path d="M141.42,0a24,24,0,1,0,24,24A24,24,0,0,0,141.42,0Zm0,36a12,12,0,1,1,12-12A12,12,0,0,1,141.42,36Z" fill="url(#radial-gradient)"/>
</svg>
